<?xml version="1.0" encoding="UTF-8"?>
<svg id="Layer_1" xmlns="http://www.w3.org/2000/svg" viewBox="0 0 143.01 64.59">
  <defs>
    <style>
      .cls-1 {
        fill: #6a6c6c;
      }

      .cls-2 {
        fill: #a98b5e;
      }
    </style>
  </defs>
  <line class="cls-2" x1="118.36" y1="30.97" x2="116.29" y2="36.31"/>
  <g>
    <circle class="cls-2" cx="111.83" cy="4.41" r="4.03"/>
    <g>
      <path class="cls-2" d="M134.91,25.2c-.22-.29-.46-.56-.72-.81h0c.26.26.5.53.72.81Z"/>
      <path class="cls-2" d="M136.32,28.03c-.02-.07-.03-.14-.05-.2-.03-.11-.06-.22-.1-.32-.02-.05-.04-.11-.06-.16-.03-.1-.07-.19-.11-.29.04.1.08.19.11.29-.07-.18-.14-.36-.22-.54-.01-.03-.02-.05-.03-.08l-.11-.22s-.05-.1-.08-.14c-.03-.05-.05-.1-.08-.15,0,0,0-.01,0-.02,0,0,0-.02-.01-.02-.03-.05-.06-.11-.1-.16-.02-.03-.04-.07-.06-.1-.01-.02-.02-.04-.03-.06.01.02.02.03.03.05-.01-.02-.02-.03-.03-.05-.06-.1-.12-.19-.19-.28,0,0,0-.02-.02-.02-.05-.08-.11-.16-.17-.23-.03-.04-.06-.07-.09-.11-.22-.28-.46-.56-.72-.81-.99-.98-2.24-1.77-3.67-2.3-.77-.34-1.59-.65-2.5-.97-1.23-.43-2.74-.97-2.74-2.5,0-1.37,1.17-2.1,2.39-2.36,1.56-.33,3.23-.07,4.72.42.06.02.12.04.18.06.09.03.51.18,1.02.37l2.12-5.46c-2.18-.85-4.55-1.31-7.04-1.31-.93,0-1.83.07-2.73.19-.17.02-.35.05-.52.08-.07.01-.14.02-.22.04-4.55.86-7.94,4.26-7.94,8.31,0,.62.08,1.22.23,1.8.02.06.03.12.05.19.03.11.07.23.11.34.02.05.04.09.05.13.23.66.57,1.29.99,1.88.01.02.02.04.04.06.03.05.07.09.1.14.05.07.11.14.16.21.02.02.03.04.05.07.02.02.04.04.05.06.16.2.34.39.52.57h0c.99.98,2.25,1.78,3.69,2.31,0,0,0,0,0,0,.76.34,1.57.65,2.48.96,1.23.43,2.74.97,2.74,2.5,0,1.37-1.18,2.1-2.39,2.35-1.55.33-3.23.07-4.72-.41-.06-.02-.12-.04-.18-.06-.21-.07-2.13-.77-2.89-1.07l-2.08,5.34c2.66,1.36,5.67,2.13,8.86,2.13.93,0,1.83-.07,2.73-.19.17-.02.35-.05.52-.07.07-.01.14-.02.22-.04,4.55-.86,7.94-4.26,7.94-8.31,0-.62-.08-1.22-.23-1.8ZM119.49,24.25c-.09-.09-.17-.18-.25-.27.08.09.17.18.25.27ZM135.64,26.32s-.02-.04-.04-.07c.01.02.02.04.04.07Z"/>
      <rect class="cls-2" x="107.8" y="10.43" width="7.47" height="27.78"/>
      <path class="cls-2" d="M98.42,8.47v3.25s-.05-.03-.08-.04c-1.76-.8-3.72-1.25-5.78-1.25-6.84,0-12.53,4.95-13.68,11.46-1.16-6.51-6.84-11.46-13.68-11.46s-12.53,4.95-13.68,11.47c-1.15-6.52-6.84-11.47-13.68-11.47-6.48,0-11.93,4.44-13.47,10.44v-1.16c.02-.25.03-.5.03-.75,0-4.56-3.57-8.28-8.06-8.53-.18,0-.36-.01-.54-.01-.02,0-.04,0-.06,0-2.68,0-5.18.76-7.3,2.07,0,0,0,0,0,0h0V0C4.25.56,1.04,4.14,1.04,8.47v29.74h7.39v-2.08h0s0,0,0,0v-14.71c0-2.36,1.91-4.28,4.27-4.28s4.27,1.91,4.27,4.28v16.78h7.39v-10.42c1.54,6,6.98,10.44,13.47,10.44,6.85,0,12.53-4.95,13.68-11.47,1.15,6.52,6.84,11.47,13.68,11.47s12.53-4.95,13.68-11.46c1.16,6.51,6.84,11.45,13.68,11.45,2.06,0,4.02-.45,5.78-1.25.03-.01.05-.03.08-.04v1.27h7.39V0c-4.17.56-7.39,4.14-7.39,8.47ZM37.83,32.19c-3.13,0-5.67-3.52-5.67-7.86s2.54-7.86,5.67-7.86,5.67,3.52,5.67,7.86-2.54,7.86-5.67,7.86ZM65.2,32.19c-3.13,0-5.67-3.52-5.67-7.86s2.54-7.86,5.67-7.86,5.67,3.52,5.67,7.86-2.54,7.86-5.67,7.86ZM92.56,32.19c-3.13,0-5.67-3.52-5.67-7.86s2.54-7.86,5.67-7.86,5.67,3.52,5.67,7.86-2.54,7.86-5.67,7.86Z"/>
    </g>
    <path class="cls-2" d="M139.64,4.41c1.86,0,3.37,1.49,3.37,3.35s-1.51,3.32-3.37,3.32-3.37-1.46-3.37-3.32,1.51-3.35,3.37-3.35ZM139.64,10.6c1.57,0,2.84-1.29,2.84-2.84s-1.27-2.84-2.84-2.84-2.84,1.27-2.84,2.84,1.27,2.84,2.84,2.84ZM138.33,5.86h1.33c.71,0,1.4.3,1.4,1.11,0,.55-.34.9-.87,1.02l1.02,1.65h-.83l-.89-1.58h-.49v1.58h-.68v-3.78ZM139.55,7.51c.38,0,.83-.1.83-.56,0-.41-.4-.52-.75-.52h-.62v1.08h.55Z"/>
  </g>
  <g>
    <path class="cls-1" d="M.97,43.01h2.2c1.56,0,2.57.6,2.57,2.01s-1.13,2.04-2.63,2.04h-1.14v3.17H.97v-7.21ZM1.98,46.19h1.07c.99,0,1.68-.33,1.68-1.18s-.71-1.15-1.66-1.15h-1.09v2.33Z"/>
    <path class="cls-1" d="M9.2,47.09c0-.71-.48-1.06-1.19-1.06-.54,0-1.05.23-1.37.56l-.51-.61c.47-.45,1.19-.72,1.97-.72,1.38,0,2.02.82,2.02,1.89v2.11c0,.33.02.72.07.96h-.86c-.05-.21-.08-.47-.08-.69h-.03c-.35.52-.9.81-1.62.81-.76,0-1.75-.38-1.75-1.49,0-1.46,1.73-1.63,3.36-1.63v-.13ZM8.97,47.91c-.95,0-2.15.1-2.15.92,0,.57.51.75.99.75.9,0,1.39-.6,1.39-1.41v-.25h-.23Z"/>
    <path class="cls-1" d="M14.89,46.61c-.2-.32-.65-.55-1.11-.55-1,0-1.58.81-1.58,1.74s.58,1.74,1.59,1.74c.49,0,.91-.2,1.16-.53l.64.58c-.41.47-1.03.75-1.8.75-1.49,0-2.6-1.01-2.6-2.54s1.1-2.54,2.58-2.54c.68,0,1.41.27,1.81.79l-.69.56Z"/>
    <path class="cls-1" d="M17.31,47.49h.03l2.03-2.1h1.28l-2.26,2.19,2.45,2.64h-1.32l-2.18-2.5h-.03v2.5h-.96v-7.69h.96v4.97Z"/>
    <path class="cls-1" d="M24.44,47.09c0-.71-.48-1.06-1.19-1.06-.54,0-1.05.23-1.37.56l-.51-.61c.47-.45,1.19-.72,1.97-.72,1.38,0,2.02.82,2.02,1.89v2.11c0,.33.02.72.07.96h-.86c-.05-.21-.08-.47-.08-.69h-.03c-.35.52-.9.81-1.62.81-.76,0-1.75-.38-1.75-1.49,0-1.46,1.73-1.63,3.36-1.63v-.13ZM24.2,47.91c-.95,0-2.15.1-2.15.92,0,.57.51.75.99.75.9,0,1.39-.6,1.39-1.41v-.25h-.23Z"/>
    <path class="cls-1" d="M27.12,51.04c.42.47,1.1.78,1.76.78,1.27,0,1.7-.78,1.7-1.78v-.62h-.02c-.36.54-1.02.83-1.7.83-1.48,0-2.43-1.1-2.43-2.48s.95-2.51,2.42-2.51c.69,0,1.37.31,1.74.91h.02v-.77h.93v4.58c0,1.4-.66,2.69-2.67,2.69-.83,0-1.76-.33-2.36-.88l.61-.74ZM29.01,49.45c.99,0,1.64-.74,1.64-1.7s-.66-1.7-1.64-1.7-1.6.77-1.6,1.7.59,1.7,1.6,1.7Z"/>
    <path class="cls-1" d="M33.46,44.26c-.35,0-.63-.27-.63-.61s.29-.62.63-.62.64.26.64.62-.3.61-.64.61ZM33.94,50.21h-.96v-4.82h.96v4.82Z"/>
    <path class="cls-1" d="M36.27,45.39c.02.24.04.59.04.79h.03c.23-.52.88-.93,1.57-.93,1.24,0,1.8.89,1.8,1.96v2.99h-.96v-2.68c0-.78-.21-1.48-1.1-1.48-.75,0-1.29.63-1.29,1.59v2.56h-.96v-3.79c0-.25-.01-.72-.04-1.04h.91Z"/>
    <path class="cls-1" d="M41.5,51.04c.42.47,1.1.78,1.76.78,1.27,0,1.7-.78,1.7-1.78v-.62h-.02c-.36.54-1.02.83-1.7.83-1.48,0-2.43-1.1-2.43-2.48s.95-2.51,2.42-2.51c.69,0,1.37.31,1.74.91h.02v-.77h.93v4.58c0,1.4-.66,2.69-2.67,2.69-.83,0-1.76-.33-2.36-.88l.61-.74ZM43.39,49.45c.99,0,1.64-.74,1.64-1.7s-.66-1.7-1.64-1.7-1.6.77-1.6,1.7.59,1.7,1.6,1.7Z"/>
    <path class="cls-1" d="M54.46,48.51l1.65,1.7h-1.33l-.9-.95c-.54.68-1.18,1.08-2.19,1.08-1.25,0-2.34-.71-2.34-2.05,0-1.08.79-1.71,1.62-2.09-.46-.48-.82-1.01-.82-1.65,0-1.16.93-1.74,1.92-1.74s1.86.58,1.86,1.69c0,.94-.73,1.52-1.55,1.9l1.44,1.48.91-1.53h1.12l-1.38,2.15ZM51.53,46.83c-.7.29-1.16.71-1.16,1.44s.66,1.25,1.34,1.25,1.13-.32,1.53-.91l-1.71-1.79ZM52.08,43.62c-.55,0-.97.39-.97.96,0,.46.38.96.71,1.25.6-.26,1.18-.66,1.18-1.29,0-.52-.39-.92-.93-.92Z"/>
    <path class="cls-1" d="M59.23,43.01h2.2c1.56,0,2.58.6,2.58,2.01s-1.13,2.04-2.63,2.04h-1.14v3.17h-1.01v-7.21ZM60.24,46.19h1.07c.99,0,1.68-.33,1.68-1.18s-.71-1.15-1.66-1.15h-1.09v2.33Z"/>
    <path class="cls-1" d="M64.53,45.39h.91c.02.24.04.61.04.81h.03c.26-.56.82-.95,1.48-.95.13,0,.26,0,.38.04l-.04.89c-.12-.03-.29-.05-.44-.05-.92,0-1.35.74-1.35,1.55v2.53h-.96v-3.79c0-.25-.01-.72-.04-1.04Z"/>
    <path class="cls-1" d="M68.54,44.26c-.35,0-.63-.27-.63-.61s.29-.62.63-.62.64.26.64.62-.29.61-.64.61ZM69.01,50.21h-.96v-4.82h.96v4.82Z"/>
    <path class="cls-1" d="M71.34,45.39c.02.24.04.59.04.79h.03c.23-.52.88-.93,1.57-.93,1.24,0,1.8.89,1.8,1.96v2.99h-.96v-2.68c0-.78-.21-1.48-1.1-1.48-.75,0-1.29.63-1.29,1.59v2.56h-.96v-3.79c0-.25-.01-.72-.04-1.04h.91Z"/>
    <path class="cls-1" d="M78.56,46.17h-1.28v2.51c0,.58.2.81.68.81.17,0,.4-.04.56-.12l.03.78c-.22.08-.52.13-.81.13-.91,0-1.4-.51-1.4-1.51v-2.62h-.93v-.78h.93v-1.38h.95v1.38h1.28v.78Z"/>
    <path class="cls-1" d="M79.83,44.26c-.35,0-.63-.27-.63-.61s.29-.62.63-.62.64.26.64.62-.29.61-.64.61ZM80.31,50.21h-.96v-4.82h.96v4.82Z"/>
    <path class="cls-1" d="M82.64,45.39c.02.24.04.59.04.79h.03c.23-.52.88-.93,1.57-.93,1.24,0,1.8.89,1.8,1.96v2.99h-.96v-2.68c0-.78-.21-1.48-1.1-1.48-.75,0-1.29.63-1.29,1.59v2.56h-.96v-3.79c0-.25-.01-.72-.04-1.04h.91Z"/>
    <path class="cls-1" d="M87.87,51.04c.42.47,1.1.78,1.76.78,1.27,0,1.7-.78,1.7-1.78v-.62h-.02c-.36.54-1.02.83-1.7.83-1.48,0-2.43-1.1-2.43-2.48s.95-2.51,2.42-2.51c.69,0,1.37.31,1.74.91h.02v-.77h.93v4.58c0,1.4-.66,2.69-2.67,2.69-.83,0-1.76-.33-2.36-.88l.61-.74ZM89.76,49.45c.99,0,1.64-.74,1.64-1.7s-.66-1.7-1.64-1.7-1.6.77-1.6,1.7.59,1.7,1.6,1.7Z"/>
    <path class="cls-1" d="M102.29,49.09c-.56.76-1.49,1.3-2.75,1.3-2.21,0-3.8-1.58-3.8-3.8s1.65-3.78,3.84-3.78c.99,0,2.06.39,2.59,1.12l-.79.61c-.35-.49-1.05-.84-1.79-.84-1.67,0-2.74,1.31-2.74,2.89s1.05,2.9,2.71,2.9c.8,0,1.51-.34,1.93-.96l.8.55Z"/>
    <path class="cls-1" d="M105.22,50.35c-1.48,0-2.6-1.07-2.6-2.55s1.12-2.53,2.6-2.53,2.61,1.05,2.61,2.53-1.13,2.55-2.61,2.55ZM105.22,46.05c-1.03,0-1.61.82-1.61,1.74s.58,1.75,1.61,1.75,1.61-.83,1.61-1.75-.57-1.74-1.61-1.74Z"/>
    <path class="cls-1" d="M111.42,45.26c.64,0,1.2.28,1.5.97.33-.62.96-.97,1.64-.97,1.24,0,1.8.89,1.8,1.96v2.99h-.96v-2.68c0-.78-.23-1.48-1.07-1.48-.88,0-1.22.79-1.22,1.55v2.61h-.96v-2.87c0-.75-.25-1.28-1.02-1.28-.7,0-1.23.63-1.23,1.59v2.56h-.96v-3.79c0-.25-.01-.72-.04-1.04h.91c.02.24.04.59.04.79h.03c.24-.51.8-.93,1.54-.93Z"/>
    <path class="cls-1" d="M118.72,52.66h-.96v-7.27h.94v.75h.03c.32-.51.95-.89,1.74-.89,1.44,0,2.41,1.11,2.41,2.53s-.95,2.55-2.43,2.55c-.68,0-1.34-.32-1.7-.85h-.03v3.17ZM120.29,46.05c-.98,0-1.63.82-1.63,1.75s.65,1.74,1.63,1.74c1.05,0,1.61-.85,1.61-1.75s-.56-1.74-1.61-1.74Z"/>
    <path class="cls-1" d="M124.99,50.21h-.96v-7.69h.96v7.69Z"/>
    <path class="cls-1" d="M130.94,48.09h-3.83c.03.82.72,1.47,1.57,1.47.65,0,1.13-.33,1.4-.73l.67.54c-.52.67-1.22.99-2.08.99-1.47,0-2.54-1.02-2.54-2.53s1.08-2.55,2.49-2.55,2.32.97,2.32,2.5c0,.1,0,.21-.01.33ZM129.99,47.37c-.02-.76-.47-1.36-1.35-1.36-.82,0-1.46.61-1.52,1.36h2.87Z"/>
    <path class="cls-1" d="M133.16,47.68l-1.76-2.29h1.18l1.18,1.66,1.19-1.66h1.12l-1.74,2.28,1.94,2.54h-1.19l-1.34-1.88-1.36,1.88h-1.15l1.93-2.53Z"/>
  </g>
  <g>
    <path class="cls-1" d="M9.07,57.94s.04.08.08.15c.04.07.08.16.12.26.05.1.09.22.14.34s.09.26.13.4c.04.14.07.28.1.43.03.15.04.29.04.44,0,.23-.04.45-.1.65-.07.2-.16.38-.29.53-.13.15-.29.27-.47.35s-.4.13-.65.13c-.12,0-.23-.01-.32-.04-.09-.03-.18-.06-.25-.11s-.14-.1-.2-.16c-.06-.06-.11-.13-.15-.21-.05.08-.11.15-.17.21-.06.07-.13.12-.2.17-.08.05-.17.08-.28.11-.11.02-.24.04-.4.04-.14,0-.27-.01-.37-.04-.11-.03-.2-.06-.27-.09,0,.05,0,.1,0,.15,0,.24-.03.48-.1.7-.07.22-.17.43-.31.63-.14.19-.31.36-.5.5-.2.14-.41.26-.63.35-.23.09-.46.16-.71.21s-.5.07-.74.07c-.37,0-.71-.06-1.01-.18-.31-.12-.58-.29-.8-.51-.23-.22-.4-.48-.53-.79-.13-.31-.19-.64-.19-1.02,0-.22.04-.44.08-.66.05-.22.11-.44.19-.65s.16-.41.25-.6.19-.35.29-.5l.78.57c-.09.14-.17.28-.25.43-.08.15-.15.3-.22.46s-.11.32-.15.48c-.04.16-.06.33-.06.49v.06c0,.19.04.36.11.54s.18.33.32.46.31.24.51.32c.2.08.42.12.67.12.27,0,.51-.02.73-.07.22-.05.41-.12.57-.21.16-.09.3-.2.41-.33s.19-.27.24-.42c.06-.22.1-.43.1-.65,0-.01,0-.08,0-.2,0-.12-.03-.29-.09-.52-.06-.23-.13-.45-.23-.68-.1-.22-.2-.45-.3-.67l.84-.52c.04.09.08.2.12.33.05.13.1.27.16.4.06.14.13.28.2.42s.16.26.24.36.18.18.29.24c.07.04.15.06.23.06.03,0,.06,0,.1-.01.12,0,.22-.03.3-.09s.13-.14.17-.23.07-.21.08-.33c.01-.12.02-.25.02-.38l-.02-.63.92-.09.02.44c0,.06,0,.13.02.22.01.09.02.18.05.28.02.1.04.2.07.3.03.1.07.19.11.27.05.08.1.15.16.2.06.05.13.08.2.08.19,0,.34-.07.43-.2s.14-.32.14-.57c0-.1-.02-.2-.05-.32-.03-.12-.07-.24-.13-.37s-.12-.27-.19-.41c-.07-.14-.15-.28-.23-.43l.85-.45Z"/>
    <path class="cls-1" d="M11.88,59.13c.05.16.1.32.16.49.05.17.1.34.15.52.04.17.08.35.11.52.03.17.04.34.04.51,0,.22-.03.44-.1.66s-.16.42-.28.62c-.12.2-.26.39-.43.57-.17.18-.35.35-.54.51s-.4.31-.62.45c-.22.14-.44.26-.66.37l-.43-.86c.18-.09.35-.18.52-.29.17-.11.34-.22.49-.34.16-.12.3-.25.43-.38.13-.13.25-.27.34-.41.1-.14.17-.29.23-.44.05-.15.08-.3.08-.45,0-.14-.02-.29-.05-.45-.03-.16-.07-.31-.12-.47-.05-.15-.09-.3-.14-.44-.05-.14-.09-.27-.12-.38l.94-.3Z"/>
    <path class="cls-1" d="M14.89,61.62h-.15c-.51,0-.89-.13-1.15-.38-.26-.25-.39-.64-.4-1.15,0-.08,0-.21,0-.39s0-.41,0-.67c0-.16,0-.33,0-.51,0-.18,0-.37-.01-.55,0-.19-.01-.38-.02-.57s-.02-.37-.03-.55c-.01-.18-.03-.34-.05-.49s-.04-.29-.06-.41l.94-.28c.03.14.05.32.07.53.02.21.04.43.06.67s.03.48.04.72c0,.25.01.48.01.69,0,.13,0,.27,0,.42,0,.15,0,.28,0,.39,0,.1,0,.18,0,.27,0,.08,0,.16,0,.24s0,.15,0,.23,0,.15,0,.23v.06c0,.09,0,.17.03.24.02.07.05.13.1.17.05.05.11.08.18.1.07.02.16.03.26.03h.17v.96Z"/>
    <path class="cls-1" d="M14.74,60.66h.8c.12,0,.24,0,.38-.02.14-.01.26-.04.38-.09.12-.04.21-.11.29-.19.08-.08.11-.19.11-.33,0-.07-.01-.16-.04-.27-.03-.12-.06-.25-.11-.39-.04-.14-.1-.29-.16-.44-.06-.15-.13-.29-.19-.43l.86-.43c.06.14.12.29.19.45.06.16.12.32.17.49.05.17.09.34.12.51.03.17.04.34.04.5,0,.29-.05.54-.16.74-.11.2-.25.37-.44.49-.19.13-.4.22-.65.28s-.51.09-.8.09h-.79v-.96ZM14.9,62.89l.64-.64.64.64-.64.64-.64-.64ZM16.83,63.98l-.58.58-.59-.59.59-.58.58.59ZM16.31,62.9l.64-.64.64.64-.64.64-.64-.64Z"/>
    <path class="cls-1" d="M28.55,61.62c-.12,0-.22-.01-.32-.04-.1-.03-.18-.07-.26-.11-.08-.05-.15-.1-.21-.17-.06-.06-.11-.13-.15-.2-.05.08-.11.15-.17.21-.06.07-.13.12-.2.17-.08.05-.17.08-.28.11-.11.02-.24.04-.4.04-.14,0-.27-.01-.37-.04-.11-.03-.2-.06-.27-.09,0,.33-.04.62-.12.88-.08.26-.19.48-.33.68-.14.19-.3.36-.5.49-.19.13-.4.24-.62.32-.22.08-.46.14-.7.18s-.49.06-.74.06c-.37,0-.71-.06-1.01-.18-.31-.12-.58-.29-.8-.51-.23-.22-.4-.48-.53-.79-.13-.31-.19-.64-.19-1.02,0-.22.04-.44.08-.66.05-.22.11-.44.19-.65s.16-.41.25-.6c.09-.19.19-.35.29-.5l.77.57c-.09.14-.17.28-.25.43-.08.15-.15.3-.22.46s-.11.32-.15.48c-.04.16-.06.33-.06.49,0,.21.04.4.11.58s.18.34.33.48.31.24.51.32.42.12.66.12c.27,0,.51-.02.73-.07s.41-.12.57-.21c.16-.09.3-.2.41-.33.11-.13.19-.27.24-.42.06-.22.1-.43.1-.63,0-.02,0-.08,0-.2,0-.12-.03-.29-.09-.51-.06-.22-.13-.44-.23-.67-.09-.23-.19-.46-.3-.71l.84-.52c.04.09.08.2.12.33.05.13.1.26.16.4.06.14.13.27.2.41.07.13.15.25.24.36s.18.18.29.24c.09.05.18.07.27.07.02,0,.04,0,.06,0,.12-.01.22-.05.3-.11.07-.06.13-.14.17-.23.04-.09.06-.2.08-.32.01-.12.02-.25.02-.38l-.02-.63.92-.09.02.44c0,.06,0,.13.02.22.01.09.02.19.05.28.02.1.04.2.07.3.03.1.07.19.11.28.04.08.1.15.16.2.06.05.13.08.2.08.11,0,.2-.04.26-.13.06-.08.11-.19.14-.33.03-.13.05-.28.06-.44s.01-.32.01-.47c0-.05,0-.09,0-.11,0-.03,0-.06,0-.08s0-.05,0-.08c0-.03,0-.07,0-.13l.95-.07c0,.08.01.16.02.24,0,.08.01.16.02.24,0,.08.02.17.03.27.01.09.02.2.04.31.02.13.05.24.11.34s.12.18.19.24c.07.06.15.11.24.14.09.03.17.05.25.05h.14v.96h-.13c-.25,0-.48-.05-.7-.15-.21-.1-.39-.26-.53-.49-.12.2-.27.35-.46.47-.19.11-.41.17-.69.17Z"/>
    <path class="cls-1" d="M30.9,60.66h.8c.12,0,.24,0,.38-.02.14-.01.26-.04.38-.09.12-.04.21-.11.29-.19.08-.08.11-.19.11-.33,0-.07-.01-.16-.04-.27-.03-.12-.06-.25-.11-.39-.04-.14-.1-.29-.16-.44-.06-.15-.13-.29-.19-.43l.86-.43c.06.14.12.29.19.45.06.16.12.32.17.49.05.17.09.34.12.51.03.17.04.34.04.5,0,.29-.05.54-.16.74-.11.2-.25.37-.44.49-.19.13-.4.22-.65.28s-.51.09-.8.09h-.79v-.96ZM32.29,62.73l-.64.64-.64-.64.64-.64.64.64ZM33.71,62.73l-.64.64-.64-.64.64-.64.64.64Z"/>
    <path class="cls-1" d="M34.67,60.15c.09.06.21.12.34.18.13.06.27.12.42.17s.28.09.42.12c.14.03.26.05.36.05.04,0,.09,0,.16,0,.06,0,.13,0,.2-.02.07,0,.14-.02.21-.04.07-.02.13-.05.19-.08.06-.03.1-.08.14-.13s.05-.11.06-.19h0c0-.11-.03-.22-.08-.35s-.13-.26-.23-.4c-.1-.14-.21-.28-.34-.42-.13-.14-.26-.27-.4-.4-.14-.13-.28-.25-.41-.36-.14-.11-.27-.2-.39-.28l.56-.83c.23.16.46.33.68.53.22.2.43.41.62.63.19.22.35.46.49.7.14.24.24.49.3.73.03.14.05.28.05.41s-.02.27-.07.45c-.05.17-.15.35-.31.51-.16.17-.37.3-.62.39-.21.08-.45.12-.71.12-.04,0-.09,0-.13,0-.16,0-.33-.02-.5-.05-.17-.03-.34-.07-.5-.13-.16-.05-.32-.12-.47-.19-.15-.07-.29-.15-.42-.23l.4-.92Z"/>
    <path class="cls-1" d="M38.4,63.31c.37-.07.7-.17.99-.29.3-.12.55-.26.77-.41.22-.15.39-.31.53-.48.14-.17.23-.34.27-.51-.2,0-.4,0-.59-.02-.19-.01-.37-.04-.54-.07-.17-.04-.33-.09-.47-.15-.14-.07-.27-.15-.37-.26s-.18-.24-.24-.39c-.06-.15-.09-.34-.09-.55,0-.14.01-.28.05-.43.03-.15.07-.3.13-.44.06-.14.13-.28.21-.41.08-.13.18-.24.28-.34.11-.1.23-.18.36-.23.13-.06.27-.09.42-.09.39,0,.74.17,1.06.52.1.12.2.25.28.39.08.15.16.3.22.46.06.16.11.34.15.51.04.18.06.36.07.55h.25v.96h-.33c-.09.37-.23.7-.43,1-.2.3-.44.55-.73.77-.28.22-.6.4-.95.54-.35.14-.71.24-1.08.31l-.22-.94ZM40.1,59.19c-.06,0-.13.03-.21.08-.07.05-.14.13-.21.21-.06.09-.11.18-.16.29s-.06.21-.06.31.02.19.07.26.11.13.19.17c.08.04.16.07.26.1s.19.04.29.04c.05,0,.11,0,.17,0s.13,0,.19,0c.07,0,.13,0,.2,0h.18c0-.09-.03-.19-.05-.3s-.07-.22-.11-.33c-.05-.11-.1-.22-.15-.32-.06-.1-.12-.19-.19-.27-.07-.08-.13-.14-.2-.19-.07-.05-.14-.07-.21-.07Z"/>
    <path class="cls-1" d="M41.99,60.66h.07c.09,0,.16,0,.22,0,.06,0,.12,0,.18,0,.06,0,.12,0,.18-.01s.14,0,.23-.01c-.12-.16-.21-.33-.27-.52-.06-.19-.09-.38-.09-.57,0-.14.01-.27.04-.41.03-.14.07-.27.13-.39.06-.12.13-.24.22-.34.09-.1.19-.2.31-.27-.02,0-.05-.02-.08-.03s-.09-.05-.17-.09l.56-.91s.04.01.1.04c.06.03.14.07.23.11.1.05.2.1.32.16.12.06.25.12.38.19.13.06.26.13.39.19.13.06.25.12.36.17.23.1.44.2.61.28.18.08.34.16.47.24.14.08.26.16.37.25.11.09.21.19.31.31.15.19.26.39.31.61.03.12.05.24.05.36,0,.1-.02.23-.05.38-.03.15-.11.33-.25.52s-.3.35-.51.48c-.07.04-.16.08-.26.11-.1.03-.21.05-.33.07-.11.02-.23.04-.34.05-.11,0-.21.02-.29.02-.1,0-.22,0-.35-.01-.13,0-.26-.02-.39-.04-.13-.02-.26-.05-.38-.07-.12-.03-.24-.07-.33-.11-.23.07-.52.13-.84.17-.33.04-.68.06-1.06.06h-.07v-.96ZM44.15,58.63s-.04,0-.06,0c-.08,0-.16.03-.24.08-.08.05-.16.13-.24.23-.07.1-.13.21-.17.33-.03.1-.05.19-.05.28,0,.03,0,.05,0,.08,0,.08.03.16.07.24.03.08.08.16.13.23s.11.13.17.19c.06.05.13.09.21.11.1-.02.2-.06.29-.1s.17-.11.25-.19c.07-.08.14-.17.19-.28s.09-.24.11-.39c0-.04,0-.08,0-.11,0-.08-.02-.16-.05-.24s-.09-.15-.16-.22c-.07-.07-.14-.12-.23-.16-.08-.04-.16-.06-.22-.07ZM45.73,59.36c0,.23-.04.46-.11.69s-.19.43-.34.62c.04,0,.08,0,.12.01s.08,0,.12,0c.16,0,.31-.02.44-.05.14-.04.25-.08.35-.14.1-.06.18-.13.24-.21.06-.08.09-.17.09-.25,0-.08-.02-.16-.07-.25-.05-.09-.11-.17-.2-.25-.08-.08-.18-.16-.29-.23s-.23-.14-.36-.2c0,.04,0,.09.01.13,0,.05,0,.09,0,.13Z"/>
    <path class="cls-1" d="M55.11,58.29c.11-.02.23-.04.34-.04.03,0,.06,0,.1,0,.08,0,.17,0,.27.02.1.01.2.04.31.07s.22.08.32.13l-.34.9c-.13-.06-.26-.1-.4-.12-.06,0-.12-.01-.18-.01-.08,0-.16,0-.25.02-.09,0-.18.03-.27.07-.1.04-.19.1-.29.16-.1.07-.19.14-.28.23-.09.09-.17.18-.23.27-.07.1-.12.19-.16.3s-.06.2-.06.29c0,.11.03.19.08.25.05.06.12.11.21.15.09.04.19.07.3.09s.23.05.35.08c.15.03.3.07.45.12.15.05.29.11.41.19.12.08.22.18.29.31.06.11.09.25.09.42,0,.02,0,.05,0,.07-.01.26-.07.49-.18.69-.1.2-.24.37-.41.52-.17.15-.36.27-.57.37-.22.1-.44.18-.67.24s-.47.1-.71.13c-.24.02-.47.04-.69.04-.44,0-.84-.06-1.2-.18-.36-.12-.67-.29-.92-.52-.25-.23-.43-.52-.54-.86-.07-.22-.11-.47-.11-.74,0-.15,0-.29.03-.45.02-.17.05-.33.08-.5.03-.17.07-.33.11-.49.04-.16.08-.31.12-.45.04-.14.08-.27.12-.37.03-.11.06-.19.09-.26.02-.07.04-.11.05-.12l.82.33c-.06.19-.11.36-.16.53-.05.16-.1.32-.13.48-.04.16-.08.32-.11.47-.03.16-.06.33-.08.5-.01.08-.02.16-.02.24,0,.18.03.35.1.53.07.18.19.33.36.47.17.14.37.24.61.3.24.07.5.1.79.1.33,0,.64-.03.93-.08s.53-.12.74-.2c.21-.08.38-.18.51-.29s.2-.22.21-.33c0-.02-.03-.04-.07-.06-.04-.02-.1-.04-.17-.06-.07-.02-.14-.04-.22-.06s-.16-.04-.23-.06c-.21-.05-.4-.11-.58-.18-.18-.07-.34-.15-.47-.26s-.24-.24-.31-.41c-.07-.16-.11-.37-.11-.62.01-.27.07-.54.17-.8.1-.26.24-.5.41-.71.17-.21.38-.4.61-.55.23-.15.49-.26.76-.32Z"/>
    <path class="cls-1" d="M58.45,61.62c-.31,0-.61-.07-.88-.21-.28-.14-.54-.33-.78-.58l.55-.78c.23.21.44.36.64.46.2.09.39.14.57.14.09,0,.18,0,.28-.02s.2-.04.29-.07c.1-.03.19-.07.28-.11.09-.04.17-.09.23-.13l-1.19-2.88.89-.37c.04.11.09.23.14.35s.11.26.17.4l.94,2.26c.03.09.07.16.11.23.04.07.08.13.13.18s.11.09.18.12c.07.03.14.04.23.04h.09v.96h-.09c-.16,0-.29-.01-.41-.04-.11-.02-.21-.06-.3-.1-.08-.04-.16-.09-.22-.15-.06-.06-.13-.12-.19-.18-.12.09-.24.16-.37.22-.12.06-.26.11-.39.14-.14.03-.28.06-.43.07-.15.01-.3.02-.47.02Z"/>
    <path class="cls-1" d="M63.95,60.66v.96h-.07c-.24,0-.45-.04-.62-.12-.17-.08-.32-.18-.43-.3-.17.14-.38.25-.63.31-.25.07-.54.1-.9.1h-.14v-.96h.14c.38,0,.67-.07.86-.2.19-.13.29-.33.29-.59,0-.08-.02-.2-.05-.35-.04-.15-.09-.33-.15-.56l.92-.26c.03.11.06.21.08.29s.04.17.05.26c.01.09.02.18.03.28,0,.1.02.21.03.35,0,.08.02.17.04.26.02.09.04.17.08.25.04.08.09.14.15.19.06.05.15.08.25.08h.07ZM63.07,57.44l-.72.72-.72-.72.72-.71.72.71Z"/>
    <path class="cls-1" d="M63.8,60.66h.6c.12,0,.24,0,.36-.02.12-.01.24-.04.34-.09.1-.04.18-.11.24-.19.06-.08.1-.19.1-.33,0-.07-.01-.16-.04-.27-.03-.12-.06-.25-.11-.39-.04-.14-.1-.29-.16-.44s-.13-.29-.19-.43l.86-.43c.06.14.12.29.19.45s.12.32.17.49c.05.17.09.34.12.51.03.17.05.34.05.5,0,.28-.05.52-.14.72-.09.2-.23.37-.4.49-.17.13-.37.22-.61.28-.24.06-.49.09-.78.09h-.6v-.96ZM65.73,62.84l-.72.72-.72-.72.72-.71.72.71Z"/>
    <path class="cls-1" d="M68.5,61.1c-.13,0-.27,0-.4-.03-.13-.02-.26-.05-.38-.09-.12-.04-.24-.09-.34-.15s-.2-.14-.28-.22c-.08-.09-.14-.19-.19-.3-.04-.11-.07-.24-.07-.39,0-.15.03-.3.08-.44s.13-.27.22-.39c.09-.12.2-.24.32-.34.12-.1.25-.2.39-.29.14-.09.27-.16.41-.23s.27-.13.39-.18l-.05-.57.95-.2s0,.07.01.15c0,.08.02.17.03.27.01.1.02.22.04.34.01.12.02.23.04.33.01.1.02.19.03.27,0,.08.01.12.02.14.04.32.07.58.1.78.03.2.06.36.08.48.02.12.04.2.06.25s.03.08.04.1c.02.05.05.1.09.14.03.04.07.07.11.09.04.02.09.04.15.05s.12.01.2.01h.07v.96h-.07c-.13,0-.26,0-.37-.01-.12,0-.23-.03-.33-.06-.11-.04-.21-.09-.3-.17s-.18-.19-.27-.34c-.14.02-.28.03-.4.05-.12,0-.25.01-.37.01ZM68.93,60.11c-.01-.07-.02-.15-.04-.24-.01-.09-.02-.19-.04-.3-.01-.11-.03-.22-.04-.34-.01-.12-.03-.23-.04-.35-.07.03-.14.06-.22.1-.08.04-.16.09-.25.14s-.17.11-.25.17c-.08.06-.15.12-.22.19-.06.06-.11.13-.15.19-.04.06-.06.13-.06.19,0,.05.03.1.08.14.05.04.12.07.21.09.08.02.17.04.27.05.1,0,.19.01.28.01.08,0,.16,0,.24,0,.08,0,.15-.01.22-.02Z"/>
    <path class="cls-1" d="M73.81,60.66v.96h-.07c-.24,0-.45-.04-.61-.12-.17-.08-.31-.18-.43-.3-.08.1-.2.19-.36.24-.16.06-.34.1-.54.12-.2.03-.4.04-.61.05s-.4,0-.57,0h-.14v-.96h.14c.29,0,.54-.02.74-.05.2-.03.36-.08.48-.15.12-.07.21-.15.27-.24.05-.1.08-.21.08-.34,0-.08-.02-.2-.05-.34-.03-.14-.08-.32-.15-.54l.92-.26c.03.11.06.21.08.29.02.08.03.17.04.25.01.08.02.17.03.27,0,.1.02.21.03.34,0,.08.03.17.06.26.03.09.07.17.12.25.05.08.12.14.2.19s.17.08.27.08h.07ZM72.15,57.35l-.64.64-.64-.64.64-.64.64.64ZM73.56,57.35l-.64.64-.64-.64.64-.64.64.64Z"/>
    <path class="cls-1" d="M73.82,60.66c.13,0,.25-.03.36-.08s.22-.14.33-.28c.1-.13.2-.32.29-.55.09-.23.18-.53.26-.89l.92.26c-.06.21-.11.41-.16.6-.05.19-.07.35-.08.49v.03s0,.09.01.14.02.1.05.14c.02.04.05.08.09.1.04.02.07.03.12.03h.01c.09,0,.18-.04.26-.1.08-.07.16-.15.23-.25.07-.1.14-.22.19-.35s.11-.26.16-.39.09-.26.12-.39c.03-.13.06-.24.07-.34l.88.18c-.03.15-.06.29-.08.41-.02.13-.03.25-.04.38,0,.03,0,.07,0,.1,0,.06,0,.14.01.22s.03.17.06.25c.03.08.08.15.14.2.06.05.14.08.23.08.11,0,.19-.04.26-.13.07-.08.12-.19.15-.32.04-.13.06-.27.07-.43.01-.16.02-.31.02-.46,0-.05,0-.09,0-.11,0-.03,0-.06,0-.08s0-.05,0-.08,0-.07,0-.13l.95-.07c0,.08.01.16.02.24,0,.08.01.16.02.24,0,.08.02.17.03.27.01.09.02.19.04.31.02.13.05.24.11.34.06.1.12.18.2.24.07.07.16.11.24.15.09.03.17.05.24.05h.14v.96h-.12c-.12,0-.24-.01-.36-.04-.12-.02-.23-.06-.34-.12-.11-.05-.21-.12-.3-.2-.09-.08-.18-.18-.25-.29-.12.19-.28.35-.47.47-.19.12-.41.18-.64.18s-.45-.06-.64-.17-.34-.26-.45-.45c-.07.09-.15.18-.23.25-.08.08-.17.14-.27.2-.1.06-.2.1-.3.13-.11.03-.22.05-.34.05s-.22-.01-.33-.04-.2-.07-.29-.13c-.09-.05-.17-.12-.24-.2-.07-.08-.13-.17-.18-.26-.12.22-.28.38-.46.48-.18.1-.41.15-.7.15h-.16v-.96h.16Z"/>
    <path class="cls-1" d="M80.59,60.66h.6c.12,0,.24,0,.36-.02.12-.01.24-.04.34-.09.1-.04.18-.11.24-.19.06-.08.1-.19.1-.33,0-.07-.01-.16-.04-.27-.03-.12-.06-.25-.11-.39-.04-.14-.1-.29-.16-.44s-.13-.29-.19-.43l.86-.43c.06.14.12.29.19.45s.12.32.17.49c.05.17.09.34.12.51.03.17.05.34.05.5,0,.28-.05.52-.14.72-.09.2-.23.37-.4.49-.17.13-.37.22-.61.28-.24.06-.49.09-.78.09h-.6v-.96ZM82.52,62.84l-.72.72-.72-.72.72-.71.72.71Z"/>
    <path class="cls-1" d="M85.77,63.31c.37-.07.7-.17.99-.29.3-.12.55-.26.77-.41s.39-.31.53-.48c.14-.17.23-.34.27-.51-.2,0-.4,0-.59-.02-.19-.01-.37-.04-.54-.07-.17-.04-.33-.09-.47-.15-.14-.07-.27-.15-.37-.26s-.18-.24-.24-.39c-.06-.15-.09-.34-.09-.55,0-.14.02-.28.05-.43s.07-.3.13-.44c.06-.14.13-.28.21-.41s.18-.24.28-.34c.11-.1.23-.18.36-.23.13-.06.27-.09.42-.09.39,0,.74.17,1.06.52.11.13.22.27.31.43.09.16.17.33.23.52.06.18.11.38.15.57.03.2.05.4.05.61,0,.32-.04.62-.12.9s-.19.53-.34.77c-.15.23-.32.45-.52.63-.2.19-.42.35-.67.5-.24.14-.5.26-.78.36-.27.1-.56.17-.85.22l-.22-.94ZM87.47,59.19c-.06,0-.13.03-.21.08s-.14.13-.21.21c-.06.09-.11.18-.16.29-.04.1-.06.21-.06.31s.02.19.07.26.11.12.19.17c.08.04.16.07.26.1.1.02.19.04.29.05.05,0,.11,0,.17,0,.06,0,.13,0,.19,0,.07,0,.13,0,.2,0,.06,0,.13,0,.18,0,0-.09-.03-.19-.05-.3-.03-.11-.07-.22-.11-.33-.04-.11-.1-.22-.15-.32-.06-.1-.12-.19-.19-.27-.07-.08-.13-.14-.2-.19-.07-.05-.14-.07-.21-.07Z"/>
    <path class="cls-1" d="M95.48,61.62c-.27,0-.54-.01-.82-.03-.28-.02-.54-.06-.8-.11-.26-.05-.5-.12-.73-.21-.23-.09-.42-.2-.59-.35-.17-.14-.3-.32-.4-.52s-.15-.44-.15-.72c0-.14.02-.27.05-.39s.07-.25.12-.37c.05-.12.1-.24.16-.35.06-.11.12-.23.18-.34l.7.58c-.04.06-.09.14-.14.24-.05.1-.1.21-.14.32-.04.11-.07.22-.08.33,0,.04,0,.07,0,.1,0,.06.01.12.03.17.05.11.16.21.31.3s.35.16.58.22c.23.06.49.1.79.13.3.03.61.04.95.04.19,0,.4,0,.63-.02.24-.01.48-.04.73-.07.25-.04.5-.08.74-.14.24-.06.47-.14.67-.24-.03-.14-.07-.28-.12-.42-.05-.13-.11-.27-.17-.4-.07-.13-.13-.26-.21-.38s-.15-.25-.22-.38l.8-.52s.03.04.07.11c.04.07.09.17.14.29.06.12.12.26.18.41.06.15.12.31.17.46s.1.3.13.45c.03.14.05.27.05.37,0,.15-.04.28-.11.4-.07.12-.18.23-.31.33-.13.1-.28.18-.45.26-.17.07-.35.14-.55.19-.19.05-.39.1-.6.14-.2.04-.4.07-.59.09-.19.02-.37.04-.54.04-.13,0-.26.01-.37.01h-.08ZM94.14,62.89l.64-.64.64.64-.64.64-.64-.64ZM96.07,63.98l-.58.58-.59-.59.59-.58.58.59ZM95.56,62.9l.64-.64.64.64-.64.64-.64-.64Z"/>
    <path class="cls-1" d="M101.62,61.62h-.15c-.51,0-.89-.13-1.15-.38-.26-.25-.39-.64-.4-1.15,0-.08,0-.21,0-.39,0-.18,0-.41,0-.67,0-.16,0-.33,0-.51s0-.37-.01-.55-.01-.38-.02-.57c0-.19-.02-.37-.03-.55-.01-.18-.03-.34-.04-.49-.02-.15-.04-.29-.06-.41l.94-.28c.03.14.05.32.07.53.02.21.04.43.06.67.02.24.03.48.04.72,0,.25.01.48.01.69,0,.13,0,.27,0,.42,0,.15,0,.28,0,.39,0,.1,0,.18,0,.27,0,.08,0,.16,0,.24,0,.08,0,.15,0,.23s0,.15,0,.23v.06c0,.09,0,.17.03.24.02.07.05.13.1.17.05.05.11.08.18.1.07.02.16.03.26.03h.17v.96Z"/>
    <path class="cls-1" d="M105.02,60.66v.96h-3.55v-.96h3.55Z"/>
    <path class="cls-1" d="M104.87,60.66h.81c.31,0,.62-.03.95-.09.32-.06.64-.14.96-.23.32-.1.63-.21.93-.33.3-.12.59-.25.86-.39-.22-.05-.41-.11-.6-.19-.18-.08-.36-.16-.52-.23-.17-.07-.32-.14-.48-.19-.15-.05-.3-.08-.45-.08-.09,0-.17.02-.24.05s-.15.07-.21.12c-.07.05-.12.1-.17.16-.05.06-.1.11-.13.17-.04.05-.07.1-.1.14-.02.04-.04.07-.05.09l-.78-.51c.08-.15.19-.29.3-.44.12-.14.25-.27.39-.38.14-.11.3-.2.47-.27.17-.07.34-.1.53-.1s.38.03.57.08.38.12.56.19c.19.08.37.16.56.25.19.09.38.17.57.25s.38.15.58.2c.19.05.39.08.6.08l-.08.97c-.35.17-.71.34-1.09.53s-.78.36-1.19.52c-.41.16-.85.29-1.3.4-.45.11-.92.17-1.42.18h-.81v-.96ZM106.61,62.89l.64-.64.64.64-.64.64-.64-.64ZM108.55,63.98l-.58.58-.59-.59.59-.58.58.59ZM108.03,62.9l.64-.64.64.64-.64.64-.64-.64Z"/>
    <path class="cls-1" d="M115.6,63.59c.14.02.29.04.44.04.04,0,.11,0,.22,0s.25-.03.42-.07c.17-.04.34-.09.5-.16.16-.07.3-.14.44-.23l.51.84c-.14.09-.29.17-.45.24s-.31.14-.48.19-.33.09-.51.12c-.15.02-.31.04-.47.04h-.08c-.23,0-.47-.03-.7-.07-.23-.04-.46-.11-.67-.19s-.41-.19-.59-.32c-.18-.13-.34-.27-.47-.44-.13-.17-.24-.35-.32-.56-.08-.21-.12-.43-.12-.68,0-.27.06-.52.15-.75.09-.23.22-.44.37-.63.15-.19.33-.36.53-.51s.41-.28.64-.39c-.08-.07-.16-.15-.25-.22-.08-.07-.16-.14-.24-.21-.08-.07-.15-.13-.22-.18-.07-.06-.12-.1-.17-.14l-.07-.8c.33-.28.68-.5,1.06-.64.38-.14.77-.22,1.18-.22.12,0,.25,0,.38.03.13.02.26.05.38.08.12.04.24.09.35.15s.21.13.29.22c.08.09.15.19.19.3.04.11.06.23.06.37v.02c0,.19-.05.36-.11.51-.06.15-.15.28-.25.4-.1.12-.22.23-.35.32-.13.1-.28.18-.43.26.2.11.42.2.65.27.23.07.45.1.67.1h.13v.96h-.13c-.21,0-.41-.02-.6-.06-.19-.04-.39-.1-.58-.18-.19-.08-.38-.17-.57-.28s-.38-.23-.57-.36c-.18.07-.37.16-.55.25s-.36.21-.51.34c-.15.13-.28.27-.38.44-.1.16-.15.35-.15.55,0,.11.02.22.07.33s.11.2.18.29c.07.09.16.17.26.25s.2.14.3.2.21.1.31.14c.1.04.19.06.28.07ZM116.27,58.54c-.1,0-.2,0-.32.02-.11.01-.22.03-.33.06s-.21.05-.31.09c-.1.03-.19.07-.26.11.05.05.11.12.18.19.06.07.13.15.21.22s.15.15.23.23c.08.08.15.15.23.21.17-.07.32-.14.46-.21.14-.07.27-.15.37-.22s.19-.16.25-.24c.06-.08.1-.17.1-.25,0,0-.02-.02-.05-.05s-.08-.04-.14-.06c-.07-.02-.15-.04-.25-.06-.1-.02-.22-.03-.37-.03Z"/>
    <path class="cls-1" d="M121.38,61.61c-.13,0-.28-.02-.46-.05s-.35-.08-.53-.13-.35-.12-.52-.19c-.17-.07-.31-.14-.42-.22-.1.1-.19.18-.28.26-.09.07-.19.14-.29.19-.1.05-.21.09-.32.12-.12.03-.25.04-.39.04h-.07v-.96h.07c.18,0,.33-.03.46-.1.12-.07.23-.16.31-.27.09-.11.16-.23.23-.37.07-.14.13-.27.2-.41.07-.14.15-.29.24-.43.09-.15.19-.28.31-.39.11-.12.24-.21.38-.28.14-.07.3-.11.48-.11.23,0,.43.04.59.12s.29.19.4.33c.11.14.19.31.25.5.06.19.11.39.16.61.02.13.05.24.07.34.02.1.05.18.08.25.03.07.06.12.09.16.03.04.07.05.12.05h.12v.96h-.14c-.14,0-.26-.04-.36-.11-.11-.07-.2-.17-.29-.29-.03.02-.06.06-.1.1-.04.04-.07.08-.12.12-.04.04-.08.08-.13.11-.04.03-.08.05-.12.06ZM119.95,60.16c.08.04.19.08.32.13s.27.1.42.16c.15.05.3.1.46.14.15.04.29.07.42.08-.02-.1-.05-.21-.08-.33s-.06-.22-.09-.33c-.03-.11-.07-.21-.11-.3-.04-.1-.09-.18-.14-.25s-.12-.13-.19-.17c-.07-.04-.15-.06-.24-.06-.1,0-.19.03-.27.1-.08.06-.15.15-.21.24-.06.1-.12.2-.17.31-.05.11-.09.21-.13.3Z"/>
    <path class="cls-1" d="M125.83,60.66v.96h-.07c-.24,0-.45-.04-.61-.12-.17-.08-.31-.18-.43-.3-.08.1-.2.19-.36.24-.16.06-.34.1-.54.12-.2.03-.4.04-.61.05s-.4,0-.57,0h-.14v-.96h.14c.29,0,.54-.02.74-.05.2-.03.36-.08.48-.15.12-.07.21-.15.27-.24.05-.1.08-.21.08-.34,0-.08-.02-.2-.05-.34-.03-.14-.08-.32-.15-.54l.92-.26c.03.11.06.21.08.29.02.08.03.17.04.25.01.08.02.17.03.27,0,.1.02.21.03.34,0,.08.03.17.06.26.03.09.07.17.12.25.05.08.12.14.2.19s.17.08.27.08h.07ZM124.17,57.35l-.64.64-.64-.64.64-.64.64.64ZM125.58,57.35l-.64.64-.64-.64.64-.64.64.64Z"/>
    <path class="cls-1" d="M125.68,60.66h.76c.31,0,.62-.03.93-.09s.62-.14.92-.24c.3-.1.6-.21.88-.33s.55-.25.8-.37c-.1-.01-.21-.04-.32-.08-.11-.04-.23-.08-.34-.13-.12-.05-.24-.11-.36-.16-.12-.06-.24-.11-.37-.16-.12-.05-.25-.08-.37-.12-.12-.03-.24-.05-.36-.05-.09,0-.18.02-.26.05-.08.03-.16.08-.24.13-.07.05-.14.11-.2.17-.06.06-.11.12-.15.17s-.07.09-.1.13l-.04.05-.75-.41c.09-.16.2-.32.33-.47s.28-.28.44-.4c.16-.12.32-.21.48-.28.17-.07.33-.1.48-.1.13,0,.25.01.38.04s.26.07.39.11.26.1.4.16c.13.06.27.12.41.18.15.07.3.14.48.21.17.07.35.13.53.18s.36.1.55.13c.18.03.36.05.53.05l-.16.91c-.1.04-.19.08-.27.13-.09.05-.18.09-.27.13.05.1.12.19.22.25.1.06.2.1.32.13.11.03.22.05.32.06s.19.01.25.01h.15v.96h-.15c-.49,0-.9-.08-1.24-.25-.34-.17-.58-.41-.73-.72-.25.12-.51.25-.78.36-.27.12-.55.22-.84.31-.29.09-.59.16-.9.22s-.64.08-.98.08h-.76v-.96ZM129.49,62.84l-.72.72-.72-.72.72-.71.72.71Z"/>
    <path class="cls-1" d="M131.99,60.66c.18,0,.34-.03.48-.1.13-.07.25-.16.36-.27.1-.11.19-.23.27-.37s.15-.27.22-.41c.07-.14.15-.29.23-.43.08-.14.18-.27.28-.38.1-.11.22-.21.36-.28.13-.07.29-.11.47-.11.16,0,.31.02.44.07s.25.12.36.2.2.19.28.3c.08.11.15.24.2.37s.09.27.12.41.04.28.04.42c0,.13-.01.25-.03.37-.02.12-.05.24-.1.35-.05.12-.11.23-.19.33s-.16.18-.26.25c-.1.07-.2.12-.31.16-.11.04-.23.06-.35.06-.1,0-.22-.01-.33-.04s-.23-.06-.35-.11c-.05-.02-.11-.05-.18-.08-.07-.03-.13-.07-.2-.1-.07-.04-.13-.08-.2-.12-.07-.04-.13-.08-.19-.12-.2.19-.41.34-.63.45s-.49.16-.78.16h-.07v-.96h.07ZM133.97,60.23c.07.04.15.09.25.15.1.06.21.11.32.15.11.05.22.08.33.1.06.02.11.02.16.02.04,0,.08,0,.11-.02.02,0,.05-.02.08-.05s.05-.06.08-.11c.02-.05.04-.1.06-.16,0-.05.02-.1.02-.16v-.04c0-.11-.02-.23-.06-.34-.04-.11-.09-.21-.16-.3-.07-.09-.15-.15-.24-.2-.06-.03-.13-.04-.2-.04-.03,0-.07,0-.11.01-.03,0-.07.03-.1.06-.03.03-.07.08-.12.16-.05.07-.1.17-.17.3-.07.12-.15.28-.24.47Z"/>
  </g>
</svg>